<svg xmlns="http://www.w3.org/2000/svg" viewBox="0 0 512 512">
  <rect width="512" height="512" rx="96" fill="#7c3aed"/>
  <g transform="translate(96, 96)">
    <path d="M160 0C71.6 0 0 71.6 0 160c0 28.2 7.3 54.7 20.1 77.7L0 320l85.3-22.4c22.3 12.1 47.8 19 74.7 19 88.4 0 160-71.6 160-160S248.4 0 160 0z" fill="white" opacity="0.9"/>
    <path d="M232 124c-4-10-8-10-12-10h-10c-4 0-10 2-16 8s-20 20-20 48 20 56 24 60c2 4 40 64 98 88 48 20 58 16 68 14s34-14 38-28 4-24 2-28-4-4-8-6-34-16-40-18-10-4-14 2-16 18-20 22-8 4-14 2-26-10-50-30c-18-16-30-36-34-42s0-10 4-12c2-2 8-8 10-12s4-8 2-12-14-34-20-46z" fill="#7c3aed"/>
  </g>
</svg>
